# xmcd
#
# Track frame offsets:
#  150
#  12977
#  23946
#  34564
#  47555
#  62705
#  75188
#  87740
#  98469
#  109737
#  122808
#  135442
#  146492
#  159126
#
# Disc length: 2261 seconds
#
# Revision: 0
# Processed by: cddbd v1.5.2PL0 Copyright (c) Steve Scherf et al.
# Submitted via: AltoMP3_Maker 3.0
#
DISCID=a208d30e
DTITLE=Dennis Stroughmatt - The Key's in the Mailbox - A Tribute to Tony Booth
DYEAR=1900
DGENRE=
TTITLE0=Apt No. 9 w Georgette Jones and Michael Sweebey
TTITLE1=The Key's in the Mailbox w The Buckaroos and JayDee Maness
TTITLE2=Fishin' on the Mississipp[i River w Buddy Alan Owens
TTITLE3=Maybe if I Close My Eyes w Buddy Spicher, Billy Contreras, Maggie Estes and Ernie Reed
TTITLE4=Happy Hour w Darrell McCall and Jessica Stiles
TTITLE5=Colors I'm Gonna Paint the Town w Buddy Alan Owens
TTITLE6=Second Fiddle w Mona McCall
TTITLE7=Working at the Carwash Blues w Larry Booth
TTITLE8=Lonesome 7-7203
TTITLE9=I've Carried This Torch
TTITLE10=He Don't Deserve You Anymore w Johnny Bush
TTITLE11=Would You Settle for Roses w Anita Stapleton
TTITLE12=Under Your Spell Again
TTITLE13=Cinderella w Justin Trevino
EXTD=
EXTT0=
EXTT1=
EXTT2=
EXTT3=
EXTT4=
EXTT5=
EXTT6=
EXTT7=
EXTT8=
EXTT9=
EXTT10=
EXTT11=
EXTT12=
EXTT13=
PLAYORDER=
